<svg viewBox="0 0 360 144" xmlns="http://www.w3.org/2000/svg" fill-rule="evenodd" clip-rule="evenodd" stroke-linejoin="round" stroke-miterlimit="1.414"><g fill-rule="nonzero"><path d="M145.7 90l1 4.1h.1l1.3-4.1 4.5-14.1h1L158 90l1.3 4.1h.1l1.1-4.1 4-14.1h1.2l-5.8 19.8h-1L154 80.8l-.9-3.4h-.1l-1 3.4-4.8 14.9h-1l-5.8-19.8h1.1l4.2 14.1zM176.3 96.1c-2.3 0-4.2-.9-5.9-2.7-1.6-1.8-2.5-4.1-2.5-6.8v-1.2c0-2.8.8-5.2 2.4-7.1 1.6-1.9 3.6-2.8 5.9-2.8 2.2 0 4.1.7 5.5 2.2 1.4 1.5 2.1 3.4 2.1 5.9v1.5h-14.9v1.4c0 2.4.7 4.4 2.1 6.1 1.4 1.7 3.1 2.5 5.2 2.5 1.5 0 2.7-.2 3.7-.6 1-.4 1.8-1 2.6-1.8l.5.8c-.8.9-1.7 1.5-2.9 2-1 .4-2.3.6-3.8.6zm-.1-19.6c-2 0-3.6.7-4.9 2.2-1.3 1.4-2 3.2-2.2 5.4l.1.1h13.7v-.6c0-2-.6-3.7-1.8-5-1.3-1.4-2.9-2.1-4.9-2.1zM200.4 90.9c0-1.1-.4-2-1.3-2.9-.9-.9-2.5-1.5-4.7-2-2.4-.5-4.1-1.1-5.1-1.9-1.1-.8-1.6-2-1.6-3.5 0-1.4.6-2.6 1.8-3.6 1.2-1 2.8-1.4 4.8-1.4 2.2 0 3.9.5 5.2 1.5 1.3 1 1.9 2.4 1.8 4v.1h-.8c0-1.3-.5-2.4-1.6-3.3-1.1-.9-2.6-1.4-4.4-1.4-1.9 0-3.3.4-4.2 1.2-1 .8-1.4 1.7-1.4 2.8 0 1 .4 1.9 1.2 2.7.8.7 2.4 1.4 4.8 1.9 2.2.5 3.9 1.2 5 2.1 1.1.9 1.7 2.1 1.7 3.7s-.6 2.8-1.9 3.8c-1.3 1-3 1.4-5.1 1.4-2.3 0-4.1-.5-5.4-1.5-1.3-1-1.9-2.3-1.8-3.8v-.1h.8c.1 1.6.8 2.7 2 3.4 1.2.7 2.7 1 4.4 1 1.8 0 3.3-.4 4.4-1.3.9-.8 1.4-1.8 1.4-2.9zM208.6 70.5v5.4h4.9v1h-4.9v13.7c0 1.6.3 2.8.8 3.5.6.7 1.3 1 2.2 1h.9c.3 0 .6-.1 1.1-.1l.2.9c-.3.1-.6.2-1 .2-.3 0-.7.1-1.1.1-1.3 0-2.3-.4-3-1.3-.7-.9-1-2.3-1-4.2V76.9H204v-1h3.7v-5.4h.9zM224.5 96.1c-2.3 0-4.2-.9-5.9-2.7-1.6-1.8-2.5-4.1-2.5-6.8v-1.2c0-2.8.8-5.2 2.4-7.1 1.6-1.9 3.6-2.8 5.9-2.8 2.2 0 4.1.7 5.5 2.2 1.4 1.5 2.1 3.4 2.1 5.9v1.5h-14.9v1.4c0 2.4.7 4.4 2.1 6.1 1.4 1.7 3.1 2.5 5.2 2.5 1.5 0 2.7-.2 3.7-.6 1-.4 1.8-1 2.6-1.8l.5.8c-.8.9-1.7 1.5-2.9 2-.9.4-2.2.6-3.8.6zm0-19.6c-2 0-3.6.7-4.9 2.2-1.3 1.5-2 3.2-2.2 5.4l.1.1h13.7v-.6c0-2-.6-3.7-1.8-5-1.4-1.4-3-2.1-4.9-2.1zM245.4 76.6l-1.3-.1c-1.8 0-3.2.6-4.3 1.7-1.1 1.1-1.8 2.6-2.2 4.5v13h-1V75.9h.8l.2 3.4v.7c.6-1.4 1.4-2.5 2.5-3.3 1.1-.8 2.4-1.2 4-1.2.3 0 .5 0 .8.1.2 0 .4.1.6.1l-.1.9zM249.9 75.9l.1 4.1c.6-1.4 1.5-2.5 2.6-3.3 1.1-.8 2.6-1.2 4.3-1.2 2.2 0 3.8.7 4.9 2 1.1 1.3 1.6 3.5 1.6 6.5v11.7h-1V84c0-2.8-.5-4.7-1.5-5.8-1-1.1-2.3-1.7-4-1.7-2.1 0-3.8.6-4.8 1.9-1.1 1.3-1.8 2.9-2 4.9v12.4h-1V75.9h.8z" fill="#507894"/><path d="M281.4 92c1 0 1.7-.3 2.3-.8.6-.6.9-1.3.9-2.2h4.9l.1.1c0 2-.7 3.7-2.3 5-1.6 1.4-3.5 2-5.8 2-3 0-5.2-.9-6.8-2.8-1.6-1.9-2.4-4.3-2.4-7.2v-.6c0-2.9.8-5.3 2.4-7.2 1.6-1.9 3.9-2.8 6.8-2.8 2.4 0 4.4.7 5.9 2.1 1.5 1.4 2.2 3.2 2.2 5.5v.1h-4.9c0-1-.3-1.9-.8-2.6-.6-.7-1.3-1-2.3-1-1.4 0-2.4.5-3 1.6-.6 1.1-.9 2.5-.9 4.2v.5c0 1.8.3 3.2.9 4.3.4 1.2 1.4 1.8 2.8 1.8zM291.8 85.6c0-3 .8-5.4 2.5-7.3 1.6-1.9 3.9-2.8 6.9-2.8 2.9 0 5.2.9 6.9 2.8 1.7 1.9 2.5 4.3 2.5 7.3v.4c0 3-.8 5.4-2.5 7.3-1.7 1.9-3.9 2.8-6.9 2.8-2.9 0-5.2-.9-6.9-2.8-1.7-1.9-2.5-4.3-2.5-7.3v-.4zm5.3.4c0 1.8.3 3.3 1 4.3.6 1.1 1.7 1.6 3.1 1.6 1.4 0 2.4-.5 3-1.6.6-1.1 1-2.5 1-4.3v-.4c0-1.8-.3-3.2-1-4.3-.6-1.1-1.7-1.7-3.1-1.7-1.4 0-2.4.6-3 1.7-.6 1.1-1 2.5-1 4.3v.4zM312.6 86c0-3.1.7-5.7 2-7.6 1.4-1.9 3.3-2.9 5.7-2.9 1 0 1.9.2 2.7.6.8.4 1.5 1 2.1 1.8V67.1h5.4v28.6h-4.6l-.4-2.4c-.6.9-1.4 1.6-2.2 2.1-.8.5-1.8.7-2.9.7-2.4 0-4.3-.9-5.7-2.7-1.4-1.8-2-4.1-2-7.1V86h-.1zm5.4.4c0 1.7.3 3.1.9 4.1.6 1 1.5 1.5 2.9 1.5.8 0 1.4-.2 2-.5.6-.3 1-.8 1.4-1.4v-8.5c-.4-.6-.8-1.1-1.4-1.5-.6-.4-1.2-.5-2-.5-1.3 0-2.3.6-2.9 1.8-.6 1.2-.9 2.7-.9 4.6v.4zM342.9 96.1c-2.9 0-5.1-.9-6.9-2.7-1.7-1.8-2.6-4.2-2.6-7v-.7c0-2.9.8-5.4 2.4-7.3 1.6-1.9 3.8-2.9 6.5-2.8 2.7 0 4.8.8 6.2 2.4 1.5 1.6 2.2 3.8 2.2 6.5v2.9H339v.1c.1 1.3.5 2.4 1.3 3.2.8.8 1.8 1.3 3.2 1.3 1.2 0 2.2-.1 3-.4.8-.2 1.6-.6 2.6-1.1l1.4 3.3c-.8.7-1.9 1.2-3.2 1.6-1.4.5-2.8.7-4.4.7zm-.5-16.5c-1 0-1.8.4-2.3 1.1-.6.8-.9 1.8-1.1 3l.1.1h6.6v-.5c0-1.1-.3-2-.8-2.7-.5-.7-1.4-1-2.5-1z" fill="#1a244f"/><g><path d="M46.7 81.6L32.8 39.8H9.2l26 69.8 11.5-28zM116.6 39.8l-14.3 43.1h-.4l-9.4-28.6-12.2 29.3 12.4 33.1h18.8l28.7-76.9h-23.6z" fill="#507894"/><path d="M38 116.7h22.8l37.1-89.4h-23L38 116.7z" fill="#1a244f"/></g></g></svg>