<?xml version="1.0" standalone="no"?>
<!DOCTYPE svg PUBLIC "-//W3C//DTD SVG 20010904//EN"
 "http://www.w3.org/TR/2001/REC-SVG-20010904/DTD/svg10.dtd">
<svg version="1.0" xmlns="http://www.w3.org/2000/svg"
 width="16.000000pt" height="16.000000pt" viewBox="0 0 16.000000 16.000000"
 preserveAspectRatio="xMidYMid meet">
<metadata>
Created by potrace 1.11, written by Peter Selinger 2001-2013
</metadata>
<g transform="translate(0.000000,16.000000) scale(0.002286,-0.002286)"
fill="#000000" stroke="none">
<path d="M3495 5823 c-23 -55 -642 -1553 -680 -1648 -59 -144 -184 -447 -210
-510 -7 -16 -34 -82 -60 -145 -54 -134 -91 -223 -110 -265 -7 -16 -32 -77 -55
-135 -24 -58 -48 -118 -55 -135 -7 -16 -70 -169 -140 -340 -70 -170 -133 -323
-140 -340 -7 -16 -46 -109 -85 -205 -39 -96 -77 -188 -85 -205 -7 -16 -61
-147 -119 -290 -97 -236 -118 -286 -146 -350 -20 -45 -40 -98 -40 -106 0 -5
257 -8 601 -7 l601 3 24 60 c13 33 28 69 34 80 5 11 21 49 35 85 15 36 33 79
41 97 8 17 14 34 14 37 0 3 9 25 19 49 18 38 85 200 176 422 59 145 326 789
339 820 7 17 35 82 61 145 26 63 53 129 60 145 7 17 45 109 84 205 40 96 83
202 98 235 14 33 29 69 33 80 5 11 15 36 23 55 8 19 81 195 162 390 142 342
319 771 410 990 24 58 100 242 169 410 70 168 135 324 146 348 11 23 20 47 20
52 0 6 -219 10 -605 10 l-605 0 -15 -37z"/>
<path d="M99 5200 l-56 -5 127 -340 c258 -694 502 -1349 610 -1640 61 -165
115 -309 119 -320 5 -11 14 -36 21 -55 7 -19 16 -44 20 -55 37 -93 50 -129 50
-135 0 -4 8 -25 17 -46 9 -22 18 -43 19 -49 1 -5 44 -120 94 -255 50 -135 135
-360 187 -500 53 -140 99 -261 102 -268 4 -7 118 257 265 615 142 345 264 642
271 658 8 17 28 65 45 108 l31 78 -366 1104 -366 1105 -47 0 c-522 4 -1100 4
-1143 0z"/>
<path d="M5764 5202 l-51 -3 -378 -1135 c-207 -624 -382 -1133 -387 -1132 -9
3 -499 1458 -501 1486 -1 23 -15 -2 -52 -93 -20 -49 -43 -103 -50 -120 -7 -16
-38 -93 -69 -170 -32 -77 -63 -153 -71 -170 -8 -16 -102 -243 -209 -504 l-196
-473 76 -207 c42 -113 89 -240 104 -281 16 -41 108 -289 205 -550 235 -630
235 -630 249 -670 l13 -35 501 -3 501 -2 6 22 c3 13 10 32 15 43 8 19 171 456
496 1335 75 201 139 374 144 385 4 11 13 34 20 50 7 17 23 62 37 100 13 39 28
79 33 90 5 11 104 277 221 590 458 1233 520 1401 529 1423 9 20 7 22 -23 22
-213 3 -1125 4 -1163 2z"/>
</g>
</svg>
