<?xml version="1.0" encoding="UTF-8" standalone="no"?><!DOCTYPE svg PUBLIC "-//W3C//DTD SVG 1.1//EN" "http://www.w3.org/Graphics/SVG/1.1/DTD/svg11.dtd"><svg width="100%" height="100%" viewBox="0 0 360 144" version="1.1" xmlns="http://www.w3.org/2000/svg" xmlns:xlink="http://www.w3.org/1999/xlink" xml:space="preserve" style="fill-rule:evenodd;clip-rule:evenodd;stroke-linejoin:round;stroke-miterlimit:1.41421;"><g><g><path d="M145.7,90l1,4.1l0.1,0l1.3,-4.1l4.5,-14.1l1,0l4.4,14.1l1.3,4.1l0.1,0l1.1,-4.1l4,-14.1l1.2,0l-5.8,19.8l-1,0l-4.9,-14.9l-0.9,-3.4l-0.1,0l-1,3.4l-4.8,14.9l-1,0l-5.8,-19.8l1.1,0l4.2,14.1Z" style="fill:#507894;fill-rule:nonzero;"/><path d="M176.3,96.1c-2.3,0 -4.2,-0.9 -5.9,-2.7c-1.6,-1.8 -2.5,-4.1 -2.5,-6.8l0,-1.2c0,-2.8 0.8,-5.2 2.4,-7.1c1.6,-1.9 3.6,-2.8 5.9,-2.8c2.2,0 4.1,0.7 5.5,2.2c1.4,1.5 2.1,3.4 2.1,5.9l0,1.5l-14.9,0l0,1.4c0,2.4 0.7,4.4 2.1,6.1c1.4,1.7 3.1,2.5 5.2,2.5c1.5,0 2.7,-0.2 3.7,-0.6c1,-0.4 1.8,-1 2.6,-1.8l0.5,0.8c-0.8,0.9 -1.7,1.5 -2.9,2c-1,0.4 -2.3,0.6 -3.8,0.6Zm-0.1,-19.6c-2,0 -3.6,0.7 -4.9,2.2c-1.3,1.4 -2,3.2 -2.2,5.4l0.1,0.1l13.7,0l0,-0.6c0,-2 -0.6,-3.7 -1.8,-5c-1.3,-1.4 -2.9,-2.1 -4.9,-2.1Z" style="fill:#507894;fill-rule:nonzero;"/><path d="M200.4,90.9c0,-1.1 -0.4,-2 -1.3,-2.9c-0.9,-0.9 -2.5,-1.5 -4.7,-2c-2.4,-0.5 -4.1,-1.1 -5.1,-1.9c-1.1,-0.8 -1.6,-2 -1.6,-3.5c0,-1.4 0.6,-2.6 1.8,-3.6c1.2,-1 2.8,-1.4 4.8,-1.4c2.2,0 3.9,0.5 5.2,1.5c1.3,1 1.9,2.4 1.8,4l0,0.1l-0.8,0c0,-1.3 -0.5,-2.4 -1.6,-3.3c-1.1,-0.9 -2.6,-1.4 -4.4,-1.4c-1.9,0 -3.3,0.4 -4.2,1.2c-1,0.8 -1.4,1.7 -1.4,2.8c0,1 0.4,1.9 1.2,2.7c0.8,0.7 2.4,1.4 4.8,1.9c2.2,0.5 3.9,1.2 5,2.1c1.1,0.9 1.7,2.1 1.7,3.7c0,1.6 -0.6,2.8 -1.9,3.8c-1.3,1 -3,1.4 -5.1,1.4c-2.3,0 -4.1,-0.5 -5.4,-1.5c-1.3,-1 -1.9,-2.3 -1.8,-3.8l0,-0.1l0.8,0c0.1,1.6 0.8,2.7 2,3.4c1.2,0.7 2.7,1 4.4,1c1.8,0 3.3,-0.4 4.4,-1.3c0.9,-0.8 1.4,-1.8 1.4,-2.9Z" style="fill:#507894;fill-rule:nonzero;"/><path d="M208.6,70.5l0,5.4l4.9,0l0,1l-4.9,0l0,13.7c0,1.6 0.3,2.8 0.8,3.5c0.6,0.7 1.3,1 2.2,1c0.3,0 0.6,0 0.9,0c0.3,0 0.6,-0.1 1.1,-0.1l0.2,0.9c-0.3,0.1 -0.6,0.2 -1,0.2c-0.3,0 -0.7,0.1 -1.1,0.1c-1.3,0 -2.3,-0.4 -3,-1.3c-0.7,-0.9 -1,-2.3 -1,-4.2l0,-13.8l-3.7,0l0,-1l3.7,0l0,-5.4l0.9,0Z" style="fill:#507894;fill-rule:nonzero;"/><path d="M224.5,96.1c-2.3,0 -4.2,-0.9 -5.9,-2.7c-1.6,-1.8 -2.5,-4.1 -2.5,-6.8l0,-1.2c0,-2.8 0.8,-5.2 2.4,-7.1c1.6,-1.9 3.6,-2.8 5.9,-2.8c2.2,0 4.1,0.7 5.5,2.2c1.4,1.5 2.1,3.4 2.1,5.9l0,1.5l-14.9,0l0,1.4c0,2.4 0.7,4.4 2.1,6.1c1.4,1.7 3.1,2.5 5.2,2.5c1.5,0 2.7,-0.2 3.7,-0.6c1,-0.4 1.8,-1 2.6,-1.8l0.5,0.8c-0.8,0.9 -1.7,1.5 -2.9,2c-0.9,0.4 -2.2,0.6 -3.8,0.6Zm0,-19.6c-2,0 -3.6,0.7 -4.9,2.2c-1.3,1.5 -2,3.2 -2.2,5.4l0.1,0.1l13.7,0l0,-0.6c0,-2 -0.6,-3.7 -1.8,-5c-1.4,-1.4 -3,-2.1 -4.9,-2.1Z" style="fill:#507894;fill-rule:nonzero;"/><path d="M245.4,76.6l-1.3,-0.1c-1.8,0 -3.2,0.6 -4.3,1.7c-1.1,1.1 -1.8,2.6 -2.2,4.5l0,13l-1,0l0,-19.8l0.8,0l0.2,3.4l0,0.7c0.6,-1.4 1.4,-2.5 2.5,-3.3c1.1,-0.8 2.4,-1.2 4,-1.2c0.3,0 0.5,0 0.8,0.1c0.2,0 0.4,0.1 0.6,0.1l-0.1,0.9Z" style="fill:#507894;fill-rule:nonzero;"/><path d="M249.9,75.9l0.1,4.1c0.6,-1.4 1.5,-2.5 2.6,-3.3c1.1,-0.8 2.6,-1.2 4.3,-1.2c2.2,0 3.8,0.7 4.9,2c1.1,1.3 1.6,3.5 1.6,6.5l0,11.7l-1,0l0,-11.7c0,-2.8 -0.5,-4.7 -1.5,-5.8c-1,-1.1 -2.3,-1.7 -4,-1.7c-2.1,0 -3.8,0.6 -4.8,1.9c-1.1,1.3 -1.8,2.9 -2,4.9l0,12.4l-1,0l0,-19.8l0.8,0Z" style="fill:#507894;fill-rule:nonzero;"/><path d="M281.4,92c1,0 1.7,-0.3 2.3,-0.8c0.6,-0.6 0.9,-1.3 0.9,-2.2l4.9,0l0.1,0.1c0,2 -0.7,3.7 -2.3,5c-1.6,1.4 -3.5,2 -5.8,2c-3,0 -5.2,-0.9 -6.8,-2.8c-1.6,-1.9 -2.4,-4.3 -2.4,-7.2l0,-0.6c0,-2.9 0.8,-5.3 2.4,-7.2c1.6,-1.9 3.9,-2.8 6.8,-2.8c2.4,0 4.4,0.7 5.9,2.1c1.5,1.4 2.2,3.2 2.2,5.5l0,0.1l-4.9,0c0,-1 -0.3,-1.9 -0.8,-2.6c-0.6,-0.7 -1.3,-1 -2.3,-1c-1.4,0 -2.4,0.5 -3,1.6c-0.6,1.1 -0.9,2.5 -0.9,4.2l0,0.5c0,1.8 0.3,3.2 0.9,4.3c0.4,1.2 1.4,1.8 2.8,1.8Z" style="fill:#1a244f;fill-rule:nonzero;"/><path d="M291.8,85.6c0,-3 0.8,-5.4 2.5,-7.3c1.6,-1.9 3.9,-2.8 6.9,-2.8c2.9,0 5.2,0.9 6.9,2.8c1.7,1.9 2.5,4.3 2.5,7.3l0,0.4c0,3 -0.8,5.4 -2.5,7.3c-1.7,1.9 -3.9,2.8 -6.9,2.8c-2.9,0 -5.2,-0.9 -6.9,-2.8c-1.7,-1.9 -2.5,-4.3 -2.5,-7.3l0,-0.4Zm5.3,0.4c0,1.8 0.3,3.3 1,4.3c0.6,1.1 1.7,1.6 3.1,1.6c1.4,0 2.4,-0.5 3,-1.6c0.6,-1.1 1,-2.5 1,-4.3l0,-0.4c0,-1.8 -0.3,-3.2 -1,-4.3c-0.6,-1.1 -1.7,-1.7 -3.1,-1.7c-1.4,0 -2.4,0.6 -3,1.7c-0.6,1.1 -1,2.5 -1,4.3l0,0.4Z" style="fill:#1a244f;fill-rule:nonzero;"/><path d="M312.6,86c0,-3.1 0.7,-5.7 2,-7.6c1.4,-1.9 3.3,-2.9 5.7,-2.9c1,0 1.9,0.2 2.7,0.6c0.8,0.4 1.5,1 2.1,1.8l0,-10.8l5.4,0l0,28.6l-4.6,0l-0.4,-2.4c-0.6,0.9 -1.4,1.6 -2.2,2.1c-0.8,0.5 -1.8,0.7 -2.9,0.7c-2.4,0 -4.3,-0.9 -5.7,-2.7c-1.4,-1.8 -2,-4.1 -2,-7.1l0,-0.3l-0.1,0Zm5.4,0.4c0,1.7 0.3,3.1 0.9,4.1c0.6,1 1.5,1.5 2.9,1.5c0.8,0 1.4,-0.2 2,-0.5c0.6,-0.3 1,-0.8 1.4,-1.4l0,-8.5c-0.4,-0.6 -0.8,-1.1 -1.4,-1.5c-0.6,-0.4 -1.2,-0.5 -2,-0.5c-1.3,0 -2.3,0.6 -2.9,1.8c-0.6,1.2 -0.9,2.7 -0.9,4.6l0,0.4Z" style="fill:#1a244f;fill-rule:nonzero;"/><path d="M342.9,96.1c-2.9,0 -5.1,-0.9 -6.9,-2.7c-1.7,-1.8 -2.6,-4.2 -2.6,-7l0,-0.7c0,-2.9 0.8,-5.4 2.4,-7.3c1.6,-1.9 3.8,-2.9 6.5,-2.8c2.7,0 4.8,0.8 6.2,2.4c1.5,1.6 2.2,3.8 2.2,6.5l0,2.9l-11.7,0l0,0.1c0.1,1.3 0.5,2.4 1.3,3.2c0.8,0.8 1.8,1.3 3.2,1.3c1.2,0 2.2,-0.1 3,-0.4c0.8,-0.2 1.6,-0.6 2.6,-1.1l1.4,3.3c-0.8,0.7 -1.9,1.2 -3.2,1.6c-1.4,0.5 -2.8,0.7 -4.4,0.7Zm-0.5,-16.5c-1,0 -1.8,0.4 -2.3,1.1c-0.6,0.8 -0.9,1.8 -1.1,3l0.1,0.1l6.6,0l0,-0.5c0,-1.1 -0.3,-2 -0.8,-2.7c-0.5,-0.7 -1.4,-1 -2.5,-1Z" style="fill:#1a244f;fill-rule:nonzero;"/></g><g><path d="M46.7,81.6l-13.9,-41.8l-23.6,0l26,69.8l11.5,-28Z" style="fill:#507894;fill-rule:nonzero;"/><path d="M116.6,39.8l-14.3,43.1l-0.4,0l-9.4,-28.6l-12.2,29.3l12.4,33.1l18.8,0l28.7,-76.9l-23.6,0Z" style="fill:#507894;fill-rule:nonzero;"/><path d="M38,116.7l22.8,0l37.1,-89.4l-23,0l-36.9,89.4Z" style="fill:#1a244f;fill-rule:nonzero;"/></g></g></svg>